<svg xmlns="http://www.w3.org/2000/svg" x="0px" y="0px" width="40" height="40" viewBox="0 0 172 172"
  style="fill: #000000">
  <g fill="none" fill-rule="nonzero" stroke="none" stroke-width="1" stroke-linecap="butt" stroke-linejoin="miter"
    stroke-miterlimit="10" stroke-dasharray="" stroke-dashoffset="0" font-family="none" font-weight="none"
    font-size="none" text-anchor="none" style="mix-blend-mode: normal">
    <path d="M0,172v-172h172v172z" fill="none"></path>
    <g fill="#8197A0">
      <path
        d="M11.46667,0c-6.33287,0 -11.46667,5.1338 -11.46667,11.46667v149.06667c0,6.33287 5.1338,11.46667 11.46667,11.46667h131.86667c6.33287,0 11.46667,-5.1338 11.46667,-11.46667v-86.24636l14.40052,-14.40052c1.79083,-1.76921 2.79875,-4.18178 2.79875,-6.69915c0,-2.51737 -1.00792,-4.92995 -2.79875,-6.69915l-9.31667,-9.28307c-1.38048,-1.37033 -3.16082,-2.26638 -5.08386,-2.55872v-23.17969c0,-6.33287 -5.1338,-11.46667 -11.46667,-11.46667zM11.46667,5.73333h131.86667c3.16643,0 5.73333,2.5669 5.73333,5.73333v11.46667h-143.33333v-11.46667c0,-3.16643 2.5669,-5.73333 5.73333,-5.73333zM14.33333,11.46667c-1.58322,0 -2.86667,1.28345 -2.86667,2.86667c0,1.58322 1.28345,2.86667 2.86667,2.86667h2.86667c1.58322,0 2.86667,-1.28345 2.86667,-2.86667c0,-1.58322 -1.28345,-2.86667 -2.86667,-2.86667zM28.66667,11.46667c-1.58322,0 -2.86667,1.28345 -2.86667,2.86667c0,1.58322 1.28345,2.86667 2.86667,2.86667h2.86667c1.58322,0 2.86667,-1.28345 2.86667,-2.86667c0,-1.58322 -1.28345,-2.86667 -2.86667,-2.86667zM43,11.46667c-1.58322,0 -2.86667,1.28345 -2.86667,2.86667c0,1.58322 1.28345,2.86667 2.86667,2.86667h2.86667c1.58322,0 2.86667,-1.28345 2.86667,-2.86667c0,-1.58322 -1.28345,-2.86667 -2.86667,-2.86667zM123.26667,11.46667c-1.58322,0 -2.86667,1.28345 -2.86667,2.86667c0,1.58322 1.28345,2.86667 2.86667,2.86667h17.2c1.58322,0 2.86667,-1.28345 2.86667,-2.86667c0,-1.58322 -1.28345,-2.86667 -2.86667,-2.86667zM5.73333,28.66667h143.33333v6.78034c-0.94573,0.42718 -1.80825,1.01862 -2.54753,1.74688l-6.39401,6.39401c-1.0226,-3.72144 -4.39911,-6.3059 -8.25846,-6.32122h-108.93333c-4.74965,0 -8.6,3.85035 -8.6,8.6v17.2c0,4.74965 3.85035,8.6 8.6,8.6h89.11302l-30.82227,30.82227c-1.88824,1.87389 -3.17149,4.27073 -3.68411,6.88112l-2.86667,14.28294c-0.39874,2.01794 0.12634,4.10843 1.4313,5.69844c1.30496,1.59001 3.25289,2.51273 5.30985,2.51523c0.45493,-0.00093 0.9087,-0.04593 1.35495,-0.13438l14.26614,-2.86667c2.61111,-0.51401 5.00806,-1.79928 6.88112,-3.68971l45.15,-45.1556v80.51302c0,3.16643 -2.5669,5.73333 -5.73333,5.73333h-131.86667c-3.16643,0 -5.73333,-2.5669 -5.73333,-5.73333zM153.1987,40.11654c0.9893,0.00174 1.9353,0.40601 2.62031,1.11979l9.33346,9.29987c0.71321,0.70109 1.1147,1.65941 1.11419,2.65951c0.00016,0.98469 -0.39762,1.92765 -1.103,2.61471h-0.0112l-7.30104,7.30104l-14.57969,-14.57969l7.31224,-7.31224c0.6865,-0.7062 1.62983,-1.10413 2.61471,-1.10299zM22.93333,43h108.93333c1.58322,0 2.86667,1.28345 2.86667,2.86667v3.11302l-16.95364,16.95364h-94.84636c-1.58322,0 -2.86667,-1.28345 -2.86667,-2.86667v-17.2c0,-1.58322 1.28345,-2.86667 2.86667,-2.86667zM139.2181,52.60221l14.57969,14.57969l-5.27422,5.26862l-14.57409,-14.57409zM129.89023,61.91888l5.26862,5.26302l-42.58568,42.61367l-5.26862,-5.26862zM139.2125,71.24675l5.26862,5.25742l-42.59128,42.59128l-5.26862,-5.26302zM17.2,80.26667c-1.58322,0 -2.86667,1.28345 -2.86667,2.86667c0,1.58322 1.28345,2.86667 2.86667,2.86667h65.93333c1.58322,0 2.86667,-1.28345 2.86667,-2.86667c0,-1.58322 -1.28345,-2.86667 -2.86667,-2.86667zM17.2,94.6c-1.58322,0 -2.86667,1.28345 -2.86667,2.86667c0,1.58322 1.28345,2.86667 2.86667,2.86667h57.33333c1.58322,0 2.86667,-1.28345 2.86667,-2.86667c0,-1.58322 -1.28345,-2.86667 -2.86667,-2.86667zM17.2,108.93333c-1.58322,0 -2.86667,1.28345 -2.86667,2.86667c0,1.58322 1.28345,2.86667 2.86667,2.86667h48.73333c1.58322,0 2.86667,-1.28345 2.86667,-2.86667c0,-1.58322 -1.28345,-2.86667 -2.86667,-2.86667zM83.64844,108.96693l13.79023,13.78463c-0.49105,0.21542 -1.00336,0.37869 -1.52852,0.48711l-14.27734,2.86667c-0.37195,0.06966 -0.75431,-0.04868 -1.02189,-0.31626c-0.26758,-0.26758 -0.38591,-0.64994 -0.31626,-1.02189l2.86667,-14.29414c0.10768,-0.51811 0.271,-1.02308 0.48711,-1.50612zM22.93333,123.26667c-4.74965,0 -8.6,3.85035 -8.6,8.6v17.2c0,4.74965 3.85035,8.6 8.6,8.6h17.2c4.74965,0 8.6,-3.85035 8.6,-8.6v-17.2c0,-4.74965 -3.85035,-8.6 -8.6,-8.6zM57.33333,123.26667c-1.58322,0 -2.86667,1.28345 -2.86667,2.86667c0,1.58322 1.28345,2.86667 2.86667,2.86667h8.6c1.58322,0 2.86667,-1.28345 2.86667,-2.86667c0,-1.58322 -1.28345,-2.86667 -2.86667,-2.86667zM22.93333,129h17.2c1.58322,0 2.86667,1.28345 2.86667,2.86667v17.2c0,1.58322 -1.28345,2.86667 -2.86667,2.86667h-17.2c-1.58322,0 -2.86667,-1.28345 -2.86667,-2.86667v-17.2c0,-1.58322 1.28345,-2.86667 2.86667,-2.86667zM57.33333,137.6c-1.58322,0 -2.86667,1.28345 -2.86667,2.86667c0,1.58322 1.28345,2.86667 2.86667,2.86667h77.4c1.58322,0 2.86667,-1.28345 2.86667,-2.86667c0,-1.58322 -1.28345,-2.86667 -2.86667,-2.86667zM57.33333,151.93333c-1.58322,0 -2.86667,1.28345 -2.86667,2.86667c0,1.58322 1.28345,2.86667 2.86667,2.86667h65.93333c1.58322,0 2.86667,-1.28345 2.86667,-2.86667c0,-1.58322 -1.28345,-2.86667 -2.86667,-2.86667z">
      </path>
    </g>
  </g>
</svg>