<svg xmlns="http://www.w3.org/2000/svg" x="0px" y="0px" width="40" height="40" viewBox="0 0 172 172"
  style=" fill:#000000;">
  <g fill="none" fill-rule="nonzero" stroke="none" stroke-width="1" stroke-linecap="butt" stroke-linejoin="miter"
    stroke-miterlimit="10" stroke-dasharray="" stroke-dashoffset="0" font-family="none" font-weight="none"
    font-size="none" text-anchor="none" style="mix-blend-mode: normal">
    <path d="M0,172v-172h172v172z" fill="none"></path>
    <g fill="#8197A0">
      <path
        d="M102.125,5.375c-10.38495,0.01185 -18.80065,8.42755 -18.8125,18.8125c-0.00058,1.23404 0.83932,2.30989 2.03662,2.60876c7.11624,1.80083 14.64965,0.85635 21.10108,-2.64551c-0.40526,3.21336 -0.23463,6.47322 0.50391,9.62671l0.5354,2.35156c-0.07256,14.09594 -5.13409,21.25006 -10.59778,26.875c-2.05697,2.14556 -3.95017,4.44232 -5.6637,6.87097h-7.91553c-3.41492,-0.00516 -6.45774,-2.15699 -7.60059,-5.375h7.60059c4.4528,0 8.0625,-3.6097 8.0625,-8.0625c0,-4.4528 -3.6097,-8.0625 -8.0625,-8.0625h-9.94165l-6.04687,-4.03125c0.57256,-2.68509 2.78208,-4.71346 5.50623,-5.05481l13.50049,-1.68494c0.96282,-0.10721 1.79343,-0.72432 2.17401,-1.6152c0.38058,-0.89088 0.25224,-1.91765 -0.33593,-2.68744c-0.58817,-0.76979 -1.54512,-1.16345 -2.5047,-1.03036l-13.50049,1.69019c-5.91192,0.74268 -10.34782,5.76793 -10.35107,11.72632c0.00002,0.89856 0.44912,1.73766 1.19678,2.23608l8.0625,5.375c0.44187,0.29345 0.96029,0.45044 1.49072,0.45142h10.75c1.48427,0 2.6875,1.20323 2.6875,2.6875c0,1.48427 -1.20323,2.6875 -2.6875,2.6875h-10.75c-1.48427,0 -2.6875,1.20323 -2.6875,2.6875c0.00889,7.41764 6.01986,13.42861 13.4375,13.4375h4.46692c-3.43171,6.08114 -5.67614,12.75921 -6.61377,19.67859c-1.73855,-0.56224 -3.55309,-0.85434 -5.38025,-0.86609h-13.9729c-0.09902,0.01351 -0.19717,0.03279 -0.29395,0.05774c-4.31485,0.27584 -8.38038,2.11821 -11.43237,5.18079l-6.29883,6.29883c-0.76845,0.76861 -0.9983,1.92441 -0.5824,2.92855c0.4159,1.00414 1.39568,1.65893 2.48254,1.65909c6.49405,-0.0178 12.5333,3.3316 15.95703,8.84985c0.78852,1.2625 2.45119,1.64673 3.71368,0.85822c1.2625,-0.78852 1.64673,-2.45119 0.85822,-3.71368c-3.32266,-5.34745 -8.60825,-9.18021 -14.72351,-10.67652l2.40405,-2.40405c3.58062,-3.57046 8.95799,-4.63554 13.62927,-2.69951c4.67128,1.93603 7.71865,6.49278 7.72376,11.54936v9.1228c-0.44399,-0.07817 -0.89311,-0.12378 -1.34375,-0.13647c-5.19493,0 -9.40625,4.21132 -9.40625,9.40625v1.34375c0.02221,19.28624 15.65126,34.91529 34.9375,34.9375h13.4375c16.31894,-0.01925 29.54325,-13.24356 29.5625,-29.5625v-18.8125c0,-1.48427 -1.20323,-2.6875 -2.6875,-2.6875c-1.48427,0 -2.6875,1.20323 -2.6875,2.6875v18.8125c0.00402,5.5973 -1.94308,11.02096 -5.50623,15.33765c-0.32658,-1.04269 -1.25192,-1.78387 -2.34076,-1.87489c-1.08884,-0.09102 -2.1244,0.48623 -2.61957,1.46022c-0.05106,0.10481 -0.51583,0.10481 -0.5669,0c-0.68438,-1.28877 -2.27181,-1.79638 -3.57697,-1.1438c-1.30516,0.65258 -1.85153,2.22709 -1.23114,3.54785c0.88629,1.75685 2.62584,2.92319 4.58765,3.07593c-3.86159,2.47017 -8.34954,3.78341 -12.93359,3.78455h-13.4375c-7.5651,-0.00118 -14.83938,-2.91466 -20.31372,-8.13599l0.71387,-0.71387c1.02337,-1.05378 1.01107,-2.73399 -0.02762,-3.77267c-1.03869,-1.03869 -2.71889,-1.05099 -3.77267,-0.02762l-0.46716,0.46716c-3.15254,-4.30178 -5.07418,-9.3808 -5.55872,-14.69202h7.92603v2.6875c-1.48427,0 -2.6875,1.20323 -2.6875,2.6875c0,1.48427 1.20323,2.6875 2.6875,2.6875h0.49341c1.30192,3.70115 5.08413,5.92303 8.95086,5.25824c3.86673,-0.6648 6.68969,-4.02229 6.68073,-7.94574v-5.31201c2.08915,-0.72949 4.05544,-1.77193 5.83167,-3.09168c3.08941,-2.33009 4.90955,-5.97233 4.91833,-9.84192c0.01557,-4.66294 -2.62044,-8.9294 -6.79749,-11.00195l-1.6167,-0.80835l19.83081,-4.95508c0.87323,-0.22083 1.57777,-0.86442 1.8765,-1.71415c0.29873,-0.84974 0.15192,-1.79262 -0.39102,-2.51131c-3.28442,-4.4118 -3.95156,-10.24577 -1.74792,-15.28516l13.67895,15.95703c0.73156,0.85484 1.91818,1.16349 2.97355,0.77344c1.05536,-0.39005 1.75604,-1.39623 1.75582,-2.52136v-9.18579c0,-1.48427 -1.20323,-2.6875 -2.6875,-2.6875c-1.48427,0 -2.6875,1.20323 -2.6875,2.6875v1.93164l-11.39563,-13.30103c-0.52135,-0.63375 -1.3114,-0.98402 -2.1311,-0.94482c-0.81529,0.02702 -1.57419,0.42288 -2.06287,1.07605c-4.60578,6.194 -5.38853,14.4341 -2.03137,21.38452l-25.37903,6.34607v-4.61914c0,-0.49988 0.05736,-0.99354 0.07349,-1.49072l2.01038,-1.67444c18.94055,-15.66725 28.32944,-40.08472 24.76489,-64.40552c-0.18515,-0.67607 -0.40592,-1.34187 -0.66137,-1.99463c-0.71451,-3.05767 -0.76463,-6.23307 -0.14697,-9.31177l0.78211,-3.90002c0.20838,-1.04355 -0.21861,-2.11178 -1.0889,-2.72416c-0.87029,-0.61239 -2.01996,-0.65358 -2.93185,-0.10506l-3.93152,2.36206c-4.80034,2.89929 -10.46813,4.01612 -16.00952,3.15466c1.06592,-6.49979 6.67768,-11.27434 13.26428,-11.2854c1.48427,0 2.6875,-1.20323 2.6875,-2.6875c0,-1.48427 -1.20323,-2.6875 -2.6875,-2.6875zM112.84351,5.44324c-1.44641,0.0423 -2.60067,1.22041 -2.61337,2.66739c-0.01271,1.44698 1.12068,2.64517 2.56613,2.71286l-0.00525,-0.00525c8.94979,0.54392 17.46607,4.04238 24.21375,9.9469c3.53167,3.15912 5.64299,7.6069 5.85791,12.34045l0.17847,7.34863c0.10481,4.40481 0.43588,9.01283 0.98682,13.7052c0.15931,1.35013 1.30177,2.36865 2.66125,2.37256c0.10695,0.00146 0.2139,-0.0038 0.32019,-0.01575c1.47407,-0.17257 2.52921,-1.50735 2.35681,-2.98145c-0.5375,-4.52575 -0.8532,-8.96836 -0.95532,-13.20654l-0.17847,-7.41687c-0.27475,-6.20598 -3.04159,-12.03867 -7.67407,-16.17749c-7.64644,-6.69817 -17.30062,-10.66766 -27.44714,-11.2854c-0.08909,-0.00619 -0.17844,-0.00794 -0.2677,-0.00525zM118.30774,26.875c-0.8866,-0.01848 -1.72527,0.40148 -2.2416,1.12245c-0.51633,0.72097 -0.64388,1.6502 -0.34092,2.48363l2.08386,5.73718c4.0034,11.01848 3.95316,23.10235 -0.14173,34.08716c-0.24961,0.6682 -0.22335,1.40821 0.073,2.05704c0.29635,0.64882 0.83848,1.15322 1.50696,1.40207c1.39001,0.51636 2.93558,-0.19066 3.45386,-1.57996c4.54236,-12.18189 4.60005,-25.58292 0.16272,-37.80347l-2.08911,-5.73718c-0.37889,-1.04196 -1.3586,-1.74443 -2.46704,-1.76892zM131.66125,34.93225c-0.88713,0.0086 -1.71294,0.45416 -2.20723,1.19087c-0.49429,0.73671 -0.59346,1.6698 -0.26506,2.49395c3.32264,8.28233 4.15631,17.35422 2.39881,26.10339l-2.53528,12.68164c-0.20668,1.04526 0.22366,2.11392 1.09705,2.72424l8.49292,5.94714c1.3935,6.56624 3.77195,12.88401 7.05469,18.73901h-5.94714c-1.48427,0 -2.6875,1.20323 -2.6875,2.6875c0,1.48427 1.20323,2.6875 2.6875,2.6875h10.75c0.99112,-0.00003 1.90177,-0.54555 2.36943,-1.4194c0.46766,-0.87385 0.41641,-1.93416 -0.13335,-2.75883c-3.10444,-4.68222 -5.54236,-9.77359 -7.24365,-15.12768l11.5321,8.0625c0.98967,0.68662 2.31532,0.63088 3.24386,-0.13638c0.92854,-0.76727 1.23316,-2.05865 0.7454,-3.16c0,-0.00175 0,-0.0035 0,-0.00525c-4.55517,-10.13485 -7.91443,-20.76576 -10.00989,-31.67786c-0.2812,-1.45817 -1.69124,-2.4123 -3.14942,-2.1311c-1.45817,0.2812 -2.4123,1.69124 -2.1311,3.14942c1.59317,8.27414 3.8829,16.39881 6.84473,24.28723l-17.89917,-12.52942l2.18884,-10.96521c1.96269,-9.77078 1.03423,-19.90181 -2.67175,-29.15308c-0.41227,-1.03035 -1.41507,-1.70167 -2.52478,-1.69018zM96.75,34.9375c-1.48427,0 -2.6875,1.20323 -2.6875,2.6875c0,1.48427 1.20323,2.6875 2.6875,2.6875c1.48427,0 2.6875,-1.20323 2.6875,-2.6875c0,-1.48427 -1.20323,-2.6875 -2.6875,-2.6875zM64.58923,53.7395c-0.11034,-0.0033 -0.22078,0.00021 -0.33069,0.0105l-8.62939,0.80835c-14.1295,1.25246 -27.20456,7.99541 -36.41773,18.78101c-0.96535,1.12769 -0.83375,2.82444 0.29394,3.7898c1.12769,0.96535 2.82444,0.83375 3.7898,-0.29394c6.2899,-7.36025 14.62731,-12.68282 23.95129,-15.2904c-6.42374,4.24867 -11.95496,9.71212 -16.28247,16.08301c-0.39954,0.59026 -0.54824,1.31507 -0.41338,2.01496c0.13486,0.6999 0.54223,1.31755 1.13249,1.71709c0.44215,0.3023 0.96561,0.46336 1.50122,0.46191c0.89472,0.00057 1.73105,-0.44416 2.23083,-1.18628c4.28962,-6.33324 9.87755,-11.6814 16.3927,-15.68933c-6.27738,7.96651 -10.20752,17.52646 -11.34839,27.60461c-0.15647,1.46993 0.90355,2.79027 2.37256,2.9552c0.1009,0.01375 0.20261,0.02077 0.30444,0.021c1.36327,-0.00157 2.50941,-1.02362 2.66651,-2.37781c1.55062,-13.8609 8.91351,-26.41159 20.25598,-34.52808c0.94439,-0.6669 1.35643,-1.86305 1.02313,-2.97008c-0.3333,-1.10704 -1.33725,-1.87686 -2.49286,-1.91151zM106.42395,59.78638c-3.03215,12.71986 -9.83209,24.22872 -19.51062,33.02161c1.98062,-9.8486 6.79097,-18.90561 13.84167,-26.0614c2.10848,-2.13291 4.00687,-4.46371 5.66895,-6.96021zM10.75,83.3125c-1.48427,0 -2.6875,1.20323 -2.6875,2.6875c0,1.48427 1.20323,2.6875 2.6875,2.6875c1.48427,0 2.6875,-1.20323 2.6875,-2.6875c0,-1.48427 -1.20323,-2.6875 -2.6875,-2.6875zM21.5,83.3125c-1.48427,0 -2.6875,1.20323 -2.6875,2.6875c0,1.48427 1.20323,2.6875 2.6875,2.6875c1.48427,0 2.6875,-1.20323 2.6875,-2.6875c0,-1.48427 -1.20323,-2.6875 -2.6875,-2.6875zM32.25,88.6875c-1.48427,0 -2.6875,1.20323 -2.6875,2.6875c0,1.48427 1.20323,2.6875 2.6875,2.6875c1.48427,0 2.6875,-1.20323 2.6875,-2.6875c0,-1.48427 -1.20323,-2.6875 -2.6875,-2.6875zM21.5,96.75c-1.48427,0 -2.6875,1.20323 -2.6875,2.6875c0,1.48427 1.20323,2.6875 2.6875,2.6875c1.48427,0 2.6875,-1.20323 2.6875,-2.6875c0,-1.48427 -1.20323,-2.6875 -2.6875,-2.6875zM37.625,99.4375c-1.48427,0 -2.6875,1.20323 -2.6875,2.6875c0,1.48427 1.20323,2.6875 2.6875,2.6875c1.48427,0 2.6875,-1.20323 2.6875,-2.6875c0,-1.48427 -1.20323,-2.6875 -2.6875,-2.6875zM75.4967,99.4375h0.2887c1.6966,0.0026 3.37508,0.34901 4.93408,1.01831c-0.01613,0.559 -0.08398,1.1075 -0.08398,1.66919v8.0625c-0.00039,0.82763 0.38057,1.60928 1.0327,2.11889c0.65213,0.50961 1.50269,0.69032 2.30568,0.48988l4.34619,-1.07605c0.03392,1.26014 -0.12179,2.51821 -0.46191,3.73206l-1.48022,5.17029c-0.65938,2.31006 -2.03395,4.3517 -3.92627,5.83167c-0.45066,-0.98903 -1.06861,-1.89288 -1.82666,-2.67175v-11.82605c0.00109,-4.68455 -1.84103,-9.18143 -5.1283,-12.51892zM123.64599,104.79675c-0.93499,-0.0068 -1.80638,0.47264 -2.30107,1.26608c-0.49469,0.79343 -0.54164,1.7869 -0.12398,2.62345c0.96547,1.92707 2.93616,3.14393 5.09155,3.14393c2.15539,0 4.12609,-1.21687 5.09155,-3.14393c0.31888,-0.63758 0.37139,-1.37573 0.14595,-2.05203c-0.22543,-0.6763 -0.71032,-1.23532 -1.34798,-1.55405c-0.63822,-0.31851 -1.37688,-0.37024 -2.05327,-0.14379c-0.67639,0.22645 -1.23501,0.71249 -1.55281,1.35107c-0.05106,0.10481 -0.51583,0.10481 -0.5669,0c-0.45066,-0.90565 -1.37152,-1.48169 -2.38306,-1.49072zM110.21899,110.1875c-0.93499,-0.00681 -1.80638,0.47264 -2.30107,1.26607c-0.49469,0.79343 -0.54164,1.7869 -0.12398,2.62345c0.95838,1.92864 2.92742,3.14708 5.08105,3.14417c2.16308,0.01293 4.14473,-1.20702 5.1073,-3.14417c0.66386,-1.32917 0.12452,-2.94484 -1.20465,-3.60871c-1.32917,-0.66386 -2.94484,-0.12452 -3.60871,1.20465c-0.05106,0.10481 -0.51058,0.10481 -0.56164,0c-0.45298,-0.90528 -1.37604,-1.47941 -2.38831,-1.48547zM93.53235,114.27649l2.07337,1.03931c2.35191,1.16445 3.83777,3.56421 3.83179,6.1886c-0.00541,2.17958 -1.03107,4.23089 -2.77148,5.54297c-3.02496,2.26009 -6.72938,3.42269 -10.5033,3.29639c2.57832,-2.14731 4.45112,-5.02052 5.375,-8.24621l1.47498,-5.17554c0.2404,-0.8673 0.41412,-1.75172 0.51965,-2.64551zM123.64599,118.25c-0.93499,-0.0068 -1.80638,0.47264 -2.30107,1.26608c-0.49469,0.79343 -0.54164,1.7869 -0.12398,2.62345c0.96547,1.92707 2.93616,3.14393 5.09155,3.14393c2.15539,0 4.12609,-1.21687 5.09155,-3.14393c0.31888,-0.63758 0.37139,-1.37573 0.14595,-2.05203c-0.22543,-0.6763 -0.71032,-1.23532 -1.34798,-1.55405c-0.63758,-0.31888 -1.37573,-0.37139 -2.05203,-0.14595c-0.6763,0.22543 -1.23532,0.71032 -1.55405,1.34798c-0.05106,0.10481 -0.51583,0.10481 -0.5669,0c-0.45212,-0.90361 -1.37268,-1.47744 -2.38306,-1.48547zM73.79602,126.3125c0.03674,-0.0005 0.07349,-0.0005 0.11023,0c1.70244,0.00683 3.21707,1.0824 3.78455,2.6875h-7.56909c0.55338,-1.56782 2.01253,-2.63508 3.67432,-2.6875zM112.90649,126.3125c-0.93499,-0.00681 -1.80638,0.47264 -2.30107,1.26607c-0.49469,0.79343 -0.54164,1.7869 -0.12398,2.62345c0.96442,1.92995 2.93667,3.14918 5.09418,3.14918c2.15751,0 4.12975,-1.21923 5.09418,-3.14918c0.66386,-1.32917 0.12452,-2.94484 -1.20465,-3.60871c-1.32917,-0.66386 -2.94484,-0.12452 -3.60871,1.20465c-0.05106,0.10481 -0.51058,0.10481 -0.56164,0c-0.45298,-0.90528 -1.37604,-1.47941 -2.38831,-1.48547zM102.15649,134.375c-0.93499,-0.00681 -1.80638,0.47264 -2.30107,1.26607c-0.49469,0.79343 -0.54164,1.7869 -0.12398,2.62345c0.96442,1.92995 2.93667,3.14918 5.09418,3.14918c2.15751,0 4.12975,-1.21923 5.09418,-3.14918c0.66386,-1.32917 0.12452,-2.94484 -1.20465,-3.60871c-1.32917,-0.66386 -2.94484,-0.12452 -3.60871,1.20465c-0.05106,0.10481 -0.51058,0.10481 -0.56164,0c-0.45298,-0.90528 -1.37604,-1.47941 -2.38831,-1.48547zM83.3125,135.45105c1.11595,0.18279 2.24434,0.27931 3.37512,0.28869c0.67188,0 1.34413,-0.1009 1.99988,-0.16272v4.17297c0,1.48427 -1.20323,2.6875 -2.6875,2.6875c-1.48427,0 -2.6875,-1.20323 -2.6875,-2.6875zM123.64599,137.0625c-0.93499,-0.0068 -1.80638,0.47264 -2.30107,1.26608c-0.49469,0.79343 -0.54164,1.7869 -0.12398,2.62345c0.96547,1.92707 2.93616,3.14393 5.09155,3.14393c2.15539,0 4.12609,-1.21687 5.09155,-3.14393c0.31888,-0.63758 0.37139,-1.37573 0.14595,-2.05203c-0.22543,-0.6763 -0.71032,-1.23532 -1.34798,-1.55405c-0.63758,-0.31888 -1.37573,-0.37139 -2.05203,-0.14595c-0.6763,0.22543 -1.23532,0.71032 -1.55405,1.34798c-0.05106,0.10481 -0.51583,0.10481 -0.5669,0c-0.45212,-0.90361 -1.37268,-1.47744 -2.38306,-1.48547zM110.21899,145.125c-0.93499,-0.00681 -1.80638,0.47264 -2.30107,1.26607c-0.49469,0.79343 -0.54164,1.7869 -0.12398,2.62345c0.95838,1.92864 2.92742,3.14708 5.08105,3.14417c2.16308,0.01293 4.14473,-1.20702 5.1073,-3.14417c0.66386,-1.32917 0.12452,-2.94484 -1.20465,-3.60871c-1.32917,-0.66386 -2.94484,-0.12452 -3.60871,1.20465c-0.05106,0.10481 -0.51058,0.10481 -0.56164,0c-0.45298,-0.90528 -1.37604,-1.47941 -2.38831,-1.48547zM94.06775,150.5c-0.93499,-0.00681 -1.80638,0.47264 -2.30107,1.26607c-0.49469,0.79343 -0.54164,1.7869 -0.12398,2.62345c0.96442,1.92995 2.93667,3.14918 5.09418,3.14918c2.15751,0 4.12975,-1.21923 5.09418,-3.14918c0.66386,-1.32917 0.12452,-2.94484 -1.20465,-3.60871c-1.32917,-0.66386 -2.94484,-0.12452 -3.60871,1.20465c-0.05106,0.10481 -0.51058,0.10481 -0.56164,0c-0.45298,-0.90528 -1.37604,-1.47941 -2.38831,-1.48547z">
      </path>
    </g>
  </g>
</svg>