<svg xmlns="http://www.w3.org/2000/svg" x="0px" y="0px" width="40" height="40" viewBox="0 0 172 172"
  style=" fill:#000000;">
  <g fill="none" fill-rule="nonzero" stroke="none" stroke-width="1" stroke-linecap="butt" stroke-linejoin="miter"
    stroke-miterlimit="10" stroke-dasharray="" stroke-dashoffset="0" font-family="none" font-weight="none"
    font-size="none" text-anchor="none" style="mix-blend-mode: normal">
    <path d="M0,172v-172h172v172z" fill="none"></path>
    <g fill="#8197a0">
      <path
        d="M130.72,6.88c-0.87344,0 -1.80062,0.29563 -2.4725,0.9675l-42.2475,42.355l-25.0475,-25.155c-1.34375,-1.34375 -3.60125,-1.34375 -4.945,0c-1.34375,1.34375 -1.34375,3.60125 0,4.945l21.6075,21.6075h-56.975c-11.38156,0 -20.64,9.25844 -20.64,20.64v79.12c0,11.38156 9.25844,20.64 20.64,20.64h130.72c11.38156,0 20.64,-9.25844 20.64,-20.64v-79.12c0,-11.38156 -9.25844,-20.64 -20.64,-20.64h-56.975l38.8075,-38.8075c1.34375,-1.34375 1.34375,-3.60125 0,-4.945c-0.67187,-0.67187 -1.59906,-0.9675 -2.4725,-0.9675zM70.52,65.36c49.71875,0 56.76,0.13438 56.76,46.44c0,46.30563 -7.525,46.44 -56.76,46.44c-49.46344,0 -56.76,-0.49719 -56.76,-46.44c0,-45.92937 7.29656,-46.44 56.76,-46.44zM147.92,89.44c3.80281,0 6.88,3.07719 6.88,6.88c0,3.80281 -3.07719,6.88 -6.88,6.88c-3.80281,0 -6.88,-3.07719 -6.88,-6.88c0,-3.80281 3.07719,-6.88 6.88,-6.88zM147.92,120.4c3.80281,0 6.88,3.07719 6.88,6.88c0,3.80281 -3.07719,6.88 -6.88,6.88c-3.80281,0 -6.88,-3.07719 -6.88,-6.88c0,-3.80281 3.07719,-6.88 6.88,-6.88z">
      </path>
    </g>
  </g>
</svg>